<?xml version="1.0" encoding="UTF-8" standalone="no"?>
<svg width="456" height="456" viewBox="0 0 456 456" version="1.1" xmlns="http://www.w3.org/2000/svg">
    <circle cx="228" cy="228" r="160" fill="white"/>
    <path d="M228,68 C153.2,68 92,129.2 92,204 C92,278.8 153.2,340 228,340 C302.8,340 364,278.8 364,204 C364,129.2 302.8,68 228,68 Z M228,100 C284.8,100 332,147.2 332,204 C332,260.8 284.8,308 228,308 C171.2,308 124,260.8 124,204 C124,147.2 171.2,100 228,100 Z" fill="#512BD4"/>
    <circle cx="228" cy="204" r="80" fill="#512BD4"/>
    <circle cx="228" cy="204" r="40" fill="white"/>
</svg>
